<svg width="28" height="28" viewBox="0 0 28 28" fill="none" xmlns="http://www.w3.org/2000/svg">
<path d="M14 1C11.4288 1 8.91543 1.76244 6.77759 3.19089C4.63975 4.61935 2.97351 6.64967 1.98957 9.02511C1.00563 11.4006 0.748189 14.0144 1.2498 16.5362C1.7514 19.0579 2.98953 21.3743 4.80762 23.1924C6.6257 25.0105 8.94208 26.2486 11.4638 26.7502C13.9856 27.2518 16.5994 26.9944 18.9749 26.0104C21.3503 25.0265 23.3806 23.3602 24.8091 21.2224C26.2376 19.0846 27 16.5712 27 14C27 10.5522 25.6304 7.24558 23.1924 4.80761C20.7544 2.36964 17.4478 1 14 1ZM8.09091 22.8045L8.83546 22.0718C9.51936 21.3864 10.3317 20.8427 11.226 20.4717C12.1203 20.1007 13.0791 19.9097 14.0473 19.9097C15.0155 19.9097 15.9742 20.1007 16.8685 20.4717C17.7628 20.8427 18.5752 21.3864 19.2591 22.0718L20.0036 22.8045C18.2447 23.9934 16.1703 24.6288 14.0473 24.6288C11.9243 24.6288 9.84982 23.9934 8.09091 22.8045ZM21.8 21.2564L20.9373 20.3936C19.1076 18.5707 16.6301 17.5471 14.0473 17.5471C11.4645 17.5471 8.98693 18.5707 7.15728 20.3936L6.29455 21.2564C5.09436 19.9949 4.22219 18.4582 3.75461 16.781C3.28703 15.1038 3.23835 13.3374 3.61283 11.637C3.98731 9.9366 4.77351 8.35412 5.9024 7.02851C7.03129 5.70289 8.46835 4.67469 10.0874 4.03416C11.7065 3.39363 13.458 3.16036 15.1883 3.35484C16.9186 3.54931 18.5746 4.16559 20.0111 5.14955C21.4476 6.13352 22.6205 7.45508 23.427 8.99822C24.2334 10.5414 24.6487 12.2589 24.6364 14C24.637 16.6983 23.6053 19.2945 21.7527 21.2564H21.8Z" fill="url(#paint0_linear_0_3)"/>
<path d="M14 5.72727C13.065 5.72727 12.1511 6.00452 11.3737 6.52396C10.5963 7.0434 9.99038 7.7817 9.63258 8.6455C9.27478 9.50929 9.18117 10.4598 9.36357 11.3768C9.54597 12.2938 9.9962 13.1361 10.6573 13.7972C11.3184 14.4584 12.1608 14.9086 13.0778 15.091C13.9948 15.2734 14.9453 15.1798 15.8091 14.822C16.6729 14.4642 17.4112 13.8583 17.9306 13.0809C18.45 12.3035 18.7273 11.3895 18.7273 10.4545C18.7273 9.20079 18.2292 7.99839 17.3427 7.11186C16.4562 6.22532 15.2538 5.72727 14 5.72727ZM14 12.8182C13.5325 12.8182 13.0755 12.6796 12.6868 12.4198C12.2981 12.1601 11.9952 11.791 11.8163 11.3591C11.6374 10.9272 11.5906 10.4519 11.6818 9.99342C11.773 9.53492 11.9981 9.11376 12.3287 8.7832C12.6592 8.45264 13.0804 8.22753 13.5389 8.13632C13.9974 8.04512 14.4726 8.09193 14.9045 8.27083C15.3364 8.44973 15.7056 8.75268 15.9653 9.14138C16.225 9.53008 16.3636 9.98706 16.3636 10.4545C16.3636 11.0814 16.1146 11.6826 15.6714 12.1259C15.2281 12.5692 14.6269 12.8182 14 12.8182Z" fill="url(#paint1_linear_0_3)"/>
<defs>
<linearGradient id="paint0_linear_0_3" x1="14" y1="1" x2="14" y2="27" gradientUnits="userSpaceOnUse">
<stop stop-color="#FB7389"/>
<stop offset="1" stop-color="#9F42FF"/>
</linearGradient>
<linearGradient id="paint1_linear_0_3" x1="14" y1="5.72727" x2="14" y2="15.1818" gradientUnits="userSpaceOnUse">
<stop stop-color="#FB7389"/>
<stop offset="1" stop-color="#9F42FF"/>
</linearGradient>
</defs>
</svg>