<svg width="28" height="28" viewBox="0 0 28 28" xmlns="http://www.w3.org/2000/svg"><path fill-rule="evenodd" clip-rule="evenodd" d="M1 3.41553C1 2.92839 1.39491 2.53348 1.88205 2.53348H6.46874C6.95589 2.53348 7.35079 2.92839 7.35079 3.41553C7.35079 3.90267 6.95589 4.29758 6.46874 4.29758H1.88205C1.39491 4.29758 1 3.90267 1 3.41553Z"/><path fill-rule="evenodd" clip-rule="evenodd" d="M6.25015 2.56096C6.7221 2.44023 7.20256 2.72495 7.32329 3.1969L11.2043 18.3682C11.325 18.8401 11.0403 19.3206 10.5684 19.4413C10.0964 19.5621 9.61597 19.2773 9.49524 18.8054L5.61422 3.6341C5.49349 3.16215 5.7782 2.68169 6.25015 2.56096Z"/><path fill-rule="evenodd" clip-rule="evenodd" d="M10.1733 18.5868C10.1733 18.0996 10.5682 17.7047 11.0554 17.7047H25.6093C26.0964 17.7047 26.4913 18.0996 26.4913 18.5868C26.4913 19.0739 26.0964 19.4688 25.6093 19.4688H11.0554C10.5682 19.4688 10.1733 19.0739 10.1733 18.5868Z"/><path fill-rule="evenodd" clip-rule="evenodd" d="M9.29126 21.9386C9.29126 19.9901 10.8708 18.4104 12.8195 18.4104C14.7681 18.4104 16.3477 19.9901 16.3477 21.9386C16.3477 23.8872 14.7681 25.4668 12.8195 25.4668C10.8709 25.4668 9.29126 23.8872 9.29126 21.9386ZM12.8195 20.1745C11.8452 20.1745 11.0554 20.9643 11.0554 21.9386C11.0554 22.9129 11.8451 23.7027 12.8195 23.7027C13.7938 23.7027 14.5836 22.9129 14.5836 21.9386C14.5836 20.9643 13.7938 20.1745 12.8195 20.1745Z"/><path fill-rule="evenodd" clip-rule="evenodd" d="M19.4349 21.9386C19.4349 19.9901 21.0144 18.4104 22.9631 18.4104C24.9116 18.4104 26.4913 19.9901 26.4913 21.9386C26.4913 23.8872 24.9116 25.4668 22.9631 25.4668C21.0145 25.4668 19.4349 23.8872 19.4349 21.9386ZM22.9631 20.1745C21.9888 20.1745 21.199 20.9643 21.199 21.9386C21.199 22.9129 21.9888 23.7027 22.9631 23.7027C23.9373 23.7027 24.7272 22.9129 24.7272 21.9386C24.7272 20.9643 23.9373 20.1745 22.9631 20.1745Z"/><path fill-rule="evenodd" clip-rule="evenodd" d="M8.64891 7.79145L10.3297 13.7185L10.3378 13.7669C10.3384 13.7707 10.3439 13.8007 10.3989 13.8413C10.4578 13.8847 10.5392 13.9119 10.6144 13.9119H23.316C23.3869 13.9119 23.4381 13.9017 23.471 13.8911C23.4794 13.8884 23.4865 13.8857 23.4924 13.8832V13.7893L25.2117 7.72653L25.2244 7.69247C25.2316 7.67336 25.2432 7.61457 25.1748 7.52561C25.1055 7.43552 25.0019 7.38474 24.9037 7.38474H8.9385C8.81684 7.38474 8.74603 7.43259 8.70358 7.48845C8.6602 7.54553 8.6217 7.64638 8.64891 7.79145ZM6.93079 8.19352C6.64276 6.89739 7.53164 5.62064 8.9385 5.62064H24.9037C26.1967 5.62064 27.3701 6.91055 26.8904 8.27293L25.2509 14.0543C25.2136 14.5263 24.9912 14.941 24.6375 15.2323C24.2622 15.5413 23.7869 15.676 23.316 15.676H10.6144C9.7777 15.676 8.80831 15.1302 8.60779 14.1125L6.93631 8.21835L6.93079 8.19352Z"/></svg>