<svg width="28" height="28" viewBox="0 0 28 28" xmlns="http://www.w3.org/2000/svg"><path d="M26.7055 22.8516L17.8221 13.9391L26.7258 5.14159C27.0914 4.77616 27.0914 4.18064 26.7258 3.8152L24.1935 1.27069C24.0174 1.09474 23.7805 1 23.5299 1C23.2794 1 23.0424 1.10151 22.8664 1.27069L14.0034 10.0411L5.12682 1.27746C4.95078 1.10151 4.7138 1.00677 4.46328 1.00677C4.21276 1.00677 3.97578 1.10828 3.79974 1.27746L1.27422 3.82197C0.908594 4.1874 0.908594 4.78293 1.27422 5.14836L10.1779 13.9459L1.3013 22.8516C1.12526 23.0276 1.0237 23.2644 1.0237 23.5148C1.0237 23.7652 1.11849 24.0021 1.3013 24.178L3.83359 26.7225C4.01641 26.9053 4.25339 27 4.49714 27C4.73411 27 4.97786 26.912 5.16068 26.7225L14.0034 17.8438L22.8529 26.7158C23.0357 26.8985 23.2727 26.9932 23.5164 26.9932C23.7534 26.9932 23.9971 26.9053 24.1799 26.7158L26.7122 24.1713C26.8883 23.9953 26.9898 23.7585 26.9898 23.5081C26.9831 23.2644 26.8815 23.0276 26.7055 22.8516Z"/></svg>