<svg width="300" height="300" viewBox="0 0 300 300" xmlns="http://www.w3.org/2000/svg"><path d="M66.0956 211.876C131.338 237.337 186.86 242.297 249.777 202.665C249.316 203.357 236.87 221.796 204.142 231.245C211.056 240.695 220.506 251.527 220.506 251.527C241.48 251.527 261.993 245.535 279.739 234.011C293.569 224.791 301.405 208.888 299.791 192.294C297.025 163.944 290.341 136.286 279.97 109.782C266.833 75.2095 235.257 51.2391 198.61 47.7816C195.383 47.551 193.079 47.551 191.696 47.551L188.008 51.2384C230.187 63.2236 251.161 81.8925 251.621 82.5843C186.856 49.8555 110.336 49.3951 45.1092 81.2014C45.1092 81.2014 65.8527 60.6885 111.718 49.8556L108.952 47.0898C104.112 47.0898 99.5024 47.551 94.6627 48.2421C60.7818 54.0041 32.4329 77.2827 20.2171 109.32C9.61477 136.977 2.7005 166.018 0.165378 195.52C-1.21748 211.192 6.15798 226.635 19.0648 235.624C36.1203 246.917 56.4026 252.91 76.9155 252.91C76.9155 252.91 85.2126 242.077 93.5105 232.397C62.3952 223.178 49.7189 204.739 49.4883 204.048L55.3441 207.038C58.8447 208.826 62.4335 210.447 66.0956 211.876ZM102.269 191.833C87.2873 191.371 75.5327 178.695 75.9938 163.483C76.455 149.193 87.979 137.669 102.269 137.208C117.25 137.669 129.005 150.346 128.544 165.558C127.852 179.848 116.558 191.372 102.269 191.833ZM196.305 191.833C181.323 191.371 169.569 178.695 170.03 163.483C170.491 149.193 182.015 137.669 196.305 137.208C211.286 137.669 223.041 150.346 222.58 165.558C222.119 179.848 210.595 191.372 196.305 191.833Z"/></svg>