<svg width="28" height="28" viewBox="0 0 28 28" fill="none" xmlns="http://www.w3.org/2000/svg"><path fill-rule="evenodd" clip-rule="evenodd" d="M13.1503 1.35208C13.3757 1.12672 13.6813 1.00008 14 1C14.3187 1.00008 14.6243 1.12672 14.8497 1.35208C15.0751 1.57744 15.2017 1.88307 15.2018 2.20178V15.9119L19.7977 11.3148C20.0231 11.0894 20.3288 10.9628 20.6476 10.9628C20.9663 10.9629 21.272 11.0895 21.4974 11.3149C21.7228 11.5403 21.8494 11.846 21.8493 12.1648C21.8493 12.4835 21.7227 12.7892 21.4972 13.0146L14.8499 19.6622C14.6244 19.8875 14.3187 20.0141 14 20.0141C13.6812 20.0141 13.3755 19.8875 13.1501 19.6622L6.50275 13.0158C6.27734 12.7904 6.15069 12.4847 6.15067 12.1659C6.15064 11.8472 6.27724 11.5415 6.50261 11.3161C6.72798 11.0907 7.03367 10.964 7.35242 10.964C7.51025 10.964 7.66653 10.9951 7.81235 11.0554C7.95817 11.1158 8.09067 11.2043 8.20228 11.3159L12.7982 15.9119V2.20178C12.7983 1.88307 12.9249 1.57744 13.1503 1.35208ZM1.35199 17.2423C1.57737 17.0169 1.88305 16.8903 2.20178 16.8903C2.35961 16.8903 2.5159 16.9213 2.66172 16.9817C2.80755 17.0421 2.94005 17.1306 3.05165 17.2422C3.16325 17.3538 3.25177 17.4863 3.31215 17.6322C3.37253 17.778 3.40359 17.9343 3.40356 18.0921V22.0522C3.40432 22.7267 3.67262 23.3734 4.14959 23.8504C4.62656 24.3274 5.27326 24.5957 5.9478 24.5964H22.0522C22.7267 24.5957 23.3734 24.3274 23.8504 23.8504C24.3274 23.3734 24.5957 22.7267 24.5964 22.0522V18.0921C24.5964 17.9343 24.6275 17.778 24.6879 17.6322C24.7483 17.4864 24.8368 17.3539 24.9484 17.2423C25.06 17.1307 25.1925 17.0422 25.3383 16.9818C25.4841 16.9214 25.6404 16.8903 25.7982 16.8903C25.956 16.8903 26.1123 16.9214 26.2581 16.9818C26.4039 17.0422 26.5364 17.1307 26.648 17.2423C26.7596 17.3539 26.8481 17.4864 26.9085 17.6322C26.9689 17.778 27 17.9343 27 18.0921V22.0522C26.9985 23.364 26.4768 24.6216 25.5492 25.5492C24.6216 26.4768 23.364 26.9985 22.0522 27H5.9478C4.63601 26.9985 3.37836 26.4768 2.45078 25.5492C1.5232 24.6216 1.00145 23.364 1 22.0522V18.0921C1 17.7734 1.12662 17.4677 1.35199 17.2423Z" fill="url(#paint0_linear_7_5)"/><defs><linearGradient id="paint0_linear_7_5" x1="14" y1="1" x2="14" y2="27" gradientUnits="userSpaceOnUse"><stop stop-color="#FB7389"/><stop offset="1" stop-color="#9F42FF"/></linearGradient></defs></svg>