<svg width="28" height="28" viewBox="0 0 28 28" xmlns="http://www.w3.org/2000/svg"><path fill-rule="evenodd" clip-rule="evenodd" d="M14.6202 10.5991C14.4236 10.6805 14.2128 10.7223 14 10.7222C13.7872 10.7223 13.5764 10.6805 13.3798 10.5991C13.1831 10.5177 13.0045 10.3984 12.854 10.2479C12.7035 10.0974 12.5841 9.91873 12.5027 9.72208C12.4213 9.52543 12.3795 9.31467 12.3796 9.10185V2.62037C12.3796 2.19062 12.5504 1.77848 12.8542 1.4746C13.1581 1.17072 13.5703 1 14 1C14.4298 1 14.8419 1.17072 15.1458 1.4746C15.4497 1.77848 15.6204 2.19062 15.6204 2.62037V9.10185C15.6205 9.31467 15.5787 9.52543 15.4973 9.72208C15.4159 9.91873 15.2965 10.0974 15.1461 10.2479C14.9956 10.3984 14.8169 10.5177 14.6202 10.5991ZM20.3966 6.79922C20.824 6.77486 21.2436 6.9206 21.5639 7.2046C23.2756 8.73632 24.4819 10.7515 25.0233 12.9838C25.5647 15.2161 25.4156 17.5601 24.5957 19.7058C23.7759 21.8515 22.3239 23.6977 20.4319 25.0002C18.5399 26.3027 16.297 27 14.0001 27C11.7031 27 9.46021 26.3027 7.56821 25.0002C5.67621 23.6977 4.22423 21.8515 3.40437 19.7058C2.5845 17.5601 2.4354 15.2161 2.97678 12.9838C3.51816 10.7515 4.72451 8.73624 6.43623 7.20452C6.7565 6.92052 7.17613 6.77478 7.60349 6.79914C8.03085 6.8235 8.43121 7.01596 8.71714 7.33451C9.00307 7.65306 9.15134 8.07181 9.12956 8.4993C9.10779 8.9268 8.91775 9.32832 8.60093 9.61617C7.75172 10.3612 7.07134 11.2789 6.60525 12.3079C6.13916 13.337 5.89811 14.4537 5.89821 15.5834C5.89821 17.7321 6.75179 19.7928 8.27118 21.3122C9.79058 22.8316 11.8513 23.6852 14.0001 23.6852C16.1488 23.6852 18.2095 22.8316 19.7289 21.3122C21.2483 19.7928 22.1019 17.7321 22.1019 15.5834C22.102 14.4537 21.8609 13.337 21.3948 12.308C20.9288 11.2789 20.2484 10.3612 19.3992 9.61625C19.0824 9.3284 18.8923 8.92688 18.8705 8.49938C18.8488 8.07189 18.997 7.65314 19.283 7.33459C19.5689 7.01604 19.9693 6.82358 20.3966 6.79922Z"/></svg>