<svg width="28" height="28" viewBox="0 0 28 28" fill="none" xmlns="http://www.w3.org/2000/svg">
<path d="M14.2599 11.6363V16.6709H21.2563C20.9491 18.29 20.0271 19.661 18.6444 20.5828L22.8635 23.8565C25.3217 21.5874 26.7399 18.2547 26.7399 14.2956C26.7399 13.3738 26.6572 12.4873 26.5035 11.6365L14.2599 11.6363Z" fill="#4285F4"/>
<path d="M6.97433 16.4744L6.02277 17.2028L2.65451 19.8264C4.79361 24.0691 9.17785 27.0001 14.2597 27.0001C17.7696 27.0001 20.7123 25.8419 22.8633 23.8565L18.6442 20.5828C17.486 21.3628 16.0087 21.8356 14.2597 21.8356C10.8797 21.8356 8.00791 19.5546 6.97965 16.4819L6.97433 16.4744Z" fill="#34A853"/>
<path d="M2.65452 8.17361C1.7682 9.92264 1.26007 11.8963 1.26007 13.9999C1.26007 16.1035 1.7682 18.0772 2.65452 19.8263C2.65452 19.838 6.98008 16.4699 6.98008 16.4699C6.72008 15.6899 6.5664 14.8626 6.5664 13.9998C6.5664 13.137 6.72008 12.3097 6.98008 11.5297L2.65452 8.17361Z" fill="#FBBC05"/>
<path d="M14.2599 6.17633C16.1745 6.17633 17.8763 6.83813 19.2354 8.11452L22.9581 4.39182C20.7008 2.28821 17.77 0.999939 14.2599 0.999939C9.17812 0.999939 4.79361 3.91904 2.65451 8.17362L6.97993 11.53C8.00806 8.45723 10.8799 6.17633 14.2599 6.17633Z" fill="#EA4335"/>
</svg>
