<?xml version="1.0" encoding="utf-8"?><svg viewBox="0 0 300 300" xmlns="http://www.w3.org/2000/svg" xmlns:xlink="http://www.w3.org/1999/xlink"><style>:root>svg{display:none}:root>svg:target{display:block}</style><svg viewBox="0 0 28 28" id="avatar" xmlns="http://www.w3.org/2000/svg"><path d="M14 1a13 13 0 100 26 13 13 0 000-26zM8.09 22.805l.745-.733a7.362 7.362 0 0110.424 0l.745.733a10.636 10.636 0 01-11.913 0zm13.71-1.549l-.863-.862a9.762 9.762 0 00-13.78 0l-.862.862A10.637 10.637 0 1124.636 14c.001 2.698-1.03 5.294-2.883 7.256h.047z"/><path d="M14 5.727a4.727 4.727 0 100 9.454 4.727 4.727 0 000-9.454zm0 7.091a2.363 2.363 0 110-4.726 2.363 2.363 0 010 4.726z"/></svg><svg fill="none" viewBox="0 0 28 28" id="avatar-gradient" xmlns="http://www.w3.org/2000/svg"><path d="M14 1a13 13 0 100 26 13 13 0 000-26zM8.09 22.805l.745-.733a7.362 7.362 0 0110.424 0l.745.733a10.636 10.636 0 01-11.913 0zm13.71-1.549l-.863-.862a9.762 9.762 0 00-13.78 0l-.862.862A10.637 10.637 0 1124.636 14c.001 2.698-1.03 5.294-2.883 7.256h.047z" fill="url(#bpaint0_linear_0_3)"/><path d="M14 5.727a4.727 4.727 0 100 9.454 4.727 4.727 0 000-9.454zm0 7.091a2.363 2.363 0 110-4.726 2.363 2.363 0 010 4.726z" fill="url(#bpaint1_linear_0_3)"/><defs><linearGradient id="bpaint0_linear_0_3" x1="14" y1="1" x2="14" y2="27" gradientUnits="userSpaceOnUse"><stop stop-color="#FB7389"/><stop offset="1" stop-color="#9F42FF"/></linearGradient><linearGradient id="bpaint1_linear_0_3" x1="14" y1="5.727" x2="14" y2="15.182" gradientUnits="userSpaceOnUse"><stop stop-color="#FB7389"/><stop offset="1" stop-color="#9F42FF"/></linearGradient></defs></svg><svg viewBox="0 0 28 28" id="basket" xmlns="http://www.w3.org/2000/svg"><path fill-rule="evenodd" clip-rule="evenodd" d="M1 3.416c0-.488.395-.883.882-.883h4.587a.882.882 0 110 1.765H1.882A.882.882 0 011 3.416z"/><path fill-rule="evenodd" clip-rule="evenodd" d="M6.25 2.561a.882.882 0 011.073.636l3.881 15.171a.882.882 0 01-1.709.437l-3.88-15.17A.882.882 0 016.25 2.56z"/><path fill-rule="evenodd" clip-rule="evenodd" d="M10.173 18.587c0-.487.395-.882.882-.882H25.61a.882.882 0 010 1.764H11.055a.882.882 0 01-.882-.882z"/><path fill-rule="evenodd" clip-rule="evenodd" d="M9.291 21.939a3.528 3.528 0 117.057 0 3.528 3.528 0 01-7.057 0zm3.528-1.765a1.764 1.764 0 100 3.529 1.764 1.764 0 000-3.529zM19.435 21.939a3.528 3.528 0 117.056 0 3.528 3.528 0 01-7.056 0zm3.528-1.765a1.764 1.764 0 100 3.529 1.764 1.764 0 000-3.529zM8.649 7.791l1.68 5.928.009.048c0 .004.006.034.06.074.06.044.141.07.216.07h12.702a.511.511 0 00.176-.028v-.094l1.72-6.062.012-.035c.008-.019.02-.077-.05-.166a.35.35 0 00-.27-.141H8.938c-.121 0-.192.048-.234.103-.044.058-.082.158-.055.303zm-1.718.403c-.288-1.297.6-2.573 2.007-2.573h15.966c1.293 0 2.466 1.29 1.986 2.652l-1.64 5.781c-.036.472-.259.887-.613 1.178-.375.31-.85.444-1.321.444H10.614c-.836 0-1.806-.546-2.006-1.563L6.936 8.218l-.005-.024z"/></svg><svg viewBox="0 0 28 28" id="close" xmlns="http://www.w3.org/2000/svg"><path d="M26.706 22.852l-8.884-8.913 8.904-8.797a.94.94 0 000-1.327l-2.532-2.544A.932.932 0 0023.53 1a.96.96 0 00-.664.27l-8.863 8.771-8.876-8.764a.932.932 0 00-.664-.27.961.961 0 00-.663.27L1.274 3.822a.94.94 0 000 1.326l8.904 8.798L1.3 22.852a.937.937 0 00-.277.663c0 .25.094.487.277.663l2.533 2.544a.933.933 0 001.327 0l8.842-8.878 8.85 8.872a.933.933 0 001.327 0l2.532-2.545a.937.937 0 00.278-.663.97.97 0 00-.284-.656z"/></svg><svg viewBox="0 0 300 300" id="discord" xmlns="http://www.w3.org/2000/svg"><path d="M66.096 211.876c65.242 25.461 120.764 30.421 183.681-9.211-.461.692-12.907 19.131-45.635 28.58 6.914 9.45 16.364 20.282 16.364 20.282 20.974 0 41.487-5.992 59.233-17.516 13.83-9.22 21.666-25.123 20.052-41.717-2.766-28.35-9.45-56.008-19.821-82.512-13.137-34.572-44.713-58.543-81.36-62-3.227-.231-5.531-.231-6.914-.231l-3.688 3.687c42.179 11.986 63.153 30.654 63.613 31.346-64.765-32.729-141.285-33.189-206.512-1.383 0 0 20.744-20.512 66.609-31.345l-2.766-2.766c-4.84 0-9.45.461-14.29 1.152-33.88 5.762-62.23 29.04-74.445 61.078C9.615 136.977 2.7 166.018.165 195.52c-1.382 15.672 5.993 31.115 18.9 40.104 17.055 11.293 37.338 17.286 57.85 17.286 0 0 8.298-10.833 16.595-20.513-31.115-9.219-43.791-27.658-44.022-28.349l5.856 2.99c3.5 1.788 7.09 3.409 10.752 4.838zm36.173-20.043c-14.982-.462-26.736-13.138-26.275-28.35.461-14.29 11.985-25.814 26.275-26.275 14.981.461 26.736 13.138 26.275 28.35-.692 14.29-11.986 25.814-26.275 26.275zm94.036 0c-14.982-.462-26.736-13.138-26.275-28.35.461-14.29 11.985-25.814 26.275-26.275 14.981.461 26.736 13.138 26.275 28.35-.461 14.29-11.985 25.814-26.275 26.275z"/></svg><svg fill="none" viewBox="0 0 28 28" id="download" xmlns="http://www.w3.org/2000/svg"><path fill-rule="evenodd" clip-rule="evenodd" d="M13.15 1.352a1.202 1.202 0 012.052.85v13.71l4.596-4.597a1.202 1.202 0 111.7 1.7l-6.648 6.647a1.203 1.203 0 01-1.7 0l-6.647-6.646a1.202 1.202 0 011.7-1.7l4.595 4.596V2.202c0-.319.127-.625.352-.85zM1.352 17.242a1.202 1.202 0 012.052.85v3.96a2.547 2.547 0 002.544 2.544h16.104a2.547 2.547 0 002.544-2.544v-3.96a1.202 1.202 0 012.404 0v3.96A4.953 4.953 0 0122.052 27H5.948A4.953 4.953 0 011 22.052v-3.96c0-.319.127-.624.352-.85z" fill="url(#fpaint0_linear_7_5)"/><defs><linearGradient id="fpaint0_linear_7_5" x1="14" y1="1" x2="14" y2="27" gradientUnits="userSpaceOnUse"><stop stop-color="#FB7389"/><stop offset="1" stop-color="#9F42FF"/></linearGradient></defs></svg><svg viewBox="0 0 28 28" id="exit" xmlns="http://www.w3.org/2000/svg"><path fill-rule="evenodd" clip-rule="evenodd" d="M14.62 10.6a1.62 1.62 0 01-2.24-1.498V2.62a1.62 1.62 0 013.24 0v6.482a1.62 1.62 0 01-1 1.497zm5.777-3.8a1.62 1.62 0 011.167.405 11.343 11.343 0 11-15.128 0 1.62 1.62 0 012.165 2.411 7.938 7.938 0 00-2.703 5.967 8.102 8.102 0 0016.204 0 7.937 7.937 0 00-2.703-5.967 1.62 1.62 0 01.998-2.817z"/></svg><svg fill="none" viewBox="0 0 28 28" id="google" xmlns="http://www.w3.org/2000/svg"><path d="M14.26 11.636v5.035h6.996c-.307 1.619-1.229 2.99-2.612 3.912l4.22 3.274c2.458-2.27 3.876-5.602 3.876-9.561 0-.922-.083-1.809-.236-2.66H14.26z" fill="#4285F4"/><path d="M6.974 16.474l-.951.729-3.368 2.623C4.794 24.07 9.178 27 14.26 27c3.51 0 6.452-1.158 8.603-3.143l-4.219-3.274c-1.158.78-2.635 1.253-4.384 1.253-3.38 0-6.252-2.281-7.28-5.354l-.006-.008z" fill="#34A853"/><path d="M2.655 8.174A12.84 12.84 0 001.26 14c0 2.104.508 4.077 1.395 5.826 0 .012 4.325-3.356 4.325-3.356A7.79 7.79 0 016.566 14c0-.863.154-1.69.414-2.47L2.655 8.174z" fill="#FBBC05"/><path d="M14.26 6.176c1.914 0 3.616.662 4.975 1.939l3.723-3.723C20.701 2.288 17.77 1 14.26 1 9.178 1 4.794 3.919 2.655 8.174L6.98 11.53c1.028-3.073 3.9-5.354 7.28-5.354z" fill="#EA4335"/></svg><svg viewBox="0 0 300 300" id="telegram" xmlns="http://www.w3.org/2000/svg"><path d="M5.299 144.645l69.126 25.8 26.756 86.047c1.712 5.511 8.451 7.548 12.924 3.891l38.532-31.412a11.496 11.496 0 0114.013-.391l69.498 50.457c4.785 3.478 11.564.856 12.764-4.926L299.823 29.22c1.31-6.316-4.896-11.585-10.91-9.259L5.218 129.402c-7.001 2.7-6.94 12.612.081 15.243zm91.57 12.066l135.098-83.207c2.428-1.491 4.926 1.792 2.841 3.726L123.313 180.87a23.112 23.112 0 00-7.163 13.829l-3.798 28.146c-.503 3.758-5.782 4.131-6.819.494l-14.607-51.325c-1.673-5.854.765-12.107 5.943-15.303z"/></svg><svg viewBox="0 0 300 300" id="twitter" xmlns="http://www.w3.org/2000/svg"><path d="M293.2 55.537a113.744 113.744 0 01-14.51 5.287 64.133 64.133 0 0013.059-22.965 4.837 4.837 0 00-1.595-5.259 4.837 4.837 0 00-5.482-.377 114.185 114.185 0 01-33.753 13.338c-11.982-11.707-28.255-18.37-45.078-18.37-35.512 0-64.403 28.89-64.403 64.4 0 2.797.177 5.578.528 8.32C97.9 96.044 56.932 74.385 28.8 39.876a4.84 4.84 0 00-7.932.621c-5.705 9.79-8.722 20.988-8.722 32.382 0 15.517 5.54 30.241 15.327 41.745a54.488 54.488 0 01-8.62-3.848 4.837 4.837 0 00-7.187 4.119c-.007.286-.007.571-.007.861 0 23.162 12.467 44.016 31.526 55.382a55.187 55.187 0 01-4.9-.711 4.837 4.837 0 00-5.514 6.23c7.054 22.025 25.218 38.226 47.176 43.166-18.212 11.406-39.039 17.381-60.902 17.381-4.562 0-9.15-.268-13.64-.799a4.839 4.839 0 00-3.18 8.878c28.087 18.009 60.563 27.527 93.916 27.527 65.569 0 106.586-30.919 129.449-56.857 28.51-32.343 44.861-75.153 44.861-117.452 0-1.767-.027-3.552-.081-5.33 11.248-8.475 20.932-18.731 28.812-30.52a4.838 4.838 0 00-5.982-7.113z"/></svg><svg viewBox="0 0 28 28" id="wallet" xmlns="http://www.w3.org/2000/svg"><path fill-rule="evenodd" clip-rule="evenodd" d="M18.467 2.133a2.25 2.25 0 012.842 1.43l.494 1.494H9.616l8.851-2.924zm1.624 18.37a2.262 2.262 0 01-2.26-2.259v-3.752a2.262 2.262 0 012.26-2.26h5.888l.106.003V8.497c0-.962-.78-1.742-1.742-1.742h-21.6C1.78 6.755 1 7.535 1 8.497v15.742c0 .962.78 1.742 1.742 1.742h21.6c.963 0 1.743-.78 1.743-1.742V20.5c-.035.002-.07.003-.106.003H20.09zm5.888-7.033H20.09c-.564 0-1.021.458-1.021 1.022v3.752c0 .564.457 1.021 1.021 1.021h5.888c.564 0 1.021-.457 1.021-1.02v-3.753c0-.564-.457-1.022-1.021-1.022zm-3.86 4.372a1.474 1.474 0 110-2.948 1.474 1.474 0 010 2.948z"/></svg><svg fill="none" viewBox="0 0 28 28" id="wallet-gradient" xmlns="http://www.w3.org/2000/svg"><path d="M25.644 12.324V11.32c0-1.836-1.26-3.38-2.96-3.822l-.003-1.656a2.934 2.934 0 00-2.931-2.93h-.155L5.876 7.167c-.312.019-.609.09-.887.2h-.036A3.958 3.958 0 001 11.32v9.815a3.958 3.958 0 003.953 3.953H21.69a3.958 3.958 0 003.953-3.953v-1.306A2.118 2.118 0 0027 17.857v-3.56c0-.899-.564-1.666-1.356-1.973zm-.689 5.533c0 .04-.031.072-.072.072H19.35a.07.07 0 01-.071-.072v-3.56c0-.04.032-.072.071-.072h5.534c.04 0 .072.032.072.071v3.56zM19.876 4.965c.43.062.761.432.761.88l.003 1.522h-8.505l7.741-2.402zm1.815 18.079H4.953a1.909 1.909 0 01-1.908-1.91V11.32c0-1.055.854-1.91 1.908-1.91h16.738c1.055 0 1.909.855 1.909 1.91v.86h-4.25a2.118 2.118 0 00-2.117 2.116v3.56c0 1.168.95 2.117 2.116 2.117h4.25v1.162a1.909 1.909 0 01-1.908 1.909z" fill="url(#lpaint0_linear_38_32)"/><defs><linearGradient id="lpaint0_linear_38_32" x1="15.71" y1="2.912" x2="15.71" y2="25.088" gradientUnits="userSpaceOnUse"><stop stop-color="#FB7389"/><stop offset="1" stop-color="#9F42FF"/></linearGradient></defs></svg></svg>