<?xml version="1.0" encoding="utf-8"?><svg viewBox="0 0 300 300" xmlns="http://www.w3.org/2000/svg" xmlns:xlink="http://www.w3.org/1999/xlink"><style>:root>svg{display:none}:root>svg:target{display:block}</style><svg viewBox="0 0 28 28" id="avatar" xmlns="http://www.w3.org/2000/svg"><path d="M14 1a13 13 0 100 26 13 13 0 000-26zM8.09 22.805l.745-.733a7.362 7.362 0 0110.424 0l.745.733a10.636 10.636 0 01-11.913 0zm13.71-1.549l-.863-.862a9.762 9.762 0 00-13.78 0l-.862.862A10.637 10.637 0 1124.636 14c.001 2.698-1.03 5.294-2.883 7.256h.047z"/><path d="M14 5.727a4.727 4.727 0 100 9.454 4.727 4.727 0 000-9.454zm0 7.091a2.363 2.363 0 110-4.726 2.363 2.363 0 010 4.726z"/></svg><svg fill="none" viewBox="0 0 28 28" id="avatar-gradient" xmlns="http://www.w3.org/2000/svg"><path d="M14 1a13 13 0 100 26 13 13 0 000-26zM8.09 22.805l.745-.733a7.362 7.362 0 0110.424 0l.745.733a10.636 10.636 0 01-11.913 0zm13.71-1.549l-.863-.862a9.762 9.762 0 00-13.78 0l-.862.862A10.637 10.637 0 1124.636 14c.001 2.698-1.03 5.294-2.883 7.256h.047z" fill="url(#bpaint0_linear_0_3)"/><path d="M14 5.727a4.727 4.727 0 100 9.454 4.727 4.727 0 000-9.454zm0 7.091a2.363 2.363 0 110-4.726 2.363 2.363 0 010 4.726z" fill="url(#bpaint1_linear_0_3)"/><defs><linearGradient id="bpaint0_linear_0_3" x1="14" y1="1" x2="14" y2="27" gradientUnits="userSpaceOnUse"><stop stop-color="#FB7389"/><stop offset="1" stop-color="#9F42FF"/></linearGradient><linearGradient id="bpaint1_linear_0_3" x1="14" y1="5.727" x2="14" y2="15.182" gradientUnits="userSpaceOnUse"><stop stop-color="#FB7389"/><stop offset="1" stop-color="#9F42FF"/></linearGradient></defs></svg><svg viewBox="0 0 300 300" id="discord" xmlns="http://www.w3.org/2000/svg"><path d="M66.096 211.876c65.242 25.461 120.764 30.421 183.681-9.211-.461.692-12.907 19.131-45.635 28.58 6.914 9.45 16.364 20.282 16.364 20.282 20.974 0 41.487-5.992 59.233-17.516 13.83-9.22 21.666-25.123 20.052-41.717-2.766-28.35-9.45-56.008-19.821-82.512-13.137-34.572-44.713-58.543-81.36-62-3.227-.231-5.531-.231-6.914-.231l-3.688 3.687c42.179 11.986 63.153 30.654 63.613 31.346-64.765-32.729-141.285-33.189-206.512-1.383 0 0 20.744-20.512 66.609-31.345l-2.766-2.766c-4.84 0-9.45.461-14.29 1.152-33.88 5.762-62.23 29.04-74.445 61.078C9.615 136.977 2.7 166.018.165 195.52c-1.382 15.672 5.993 31.115 18.9 40.104 17.055 11.293 37.338 17.286 57.85 17.286 0 0 8.298-10.833 16.595-20.513-31.115-9.219-43.791-27.658-44.022-28.349l5.856 2.99c3.5 1.788 7.09 3.409 10.752 4.838zm36.173-20.043c-14.982-.462-26.736-13.138-26.275-28.35.461-14.29 11.985-25.814 26.275-26.275 14.981.461 26.736 13.138 26.275 28.35-.692 14.29-11.986 25.814-26.275 26.275zm94.036 0c-14.982-.462-26.736-13.138-26.275-28.35.461-14.29 11.985-25.814 26.275-26.275 14.981.461 26.736 13.138 26.275 28.35-.461 14.29-11.985 25.814-26.275 26.275z"/></svg><svg viewBox="0 0 300 300" id="telegram" xmlns="http://www.w3.org/2000/svg"><path d="M5.299 144.645l69.126 25.8 26.756 86.047c1.712 5.511 8.451 7.548 12.924 3.891l38.532-31.412a11.496 11.496 0 0114.013-.391l69.498 50.457c4.785 3.478 11.564.856 12.764-4.926L299.823 29.22c1.31-6.316-4.896-11.585-10.91-9.259L5.218 129.402c-7.001 2.7-6.94 12.612.081 15.243zm91.57 12.066l135.098-83.207c2.428-1.491 4.926 1.792 2.841 3.726L123.313 180.87a23.112 23.112 0 00-7.163 13.829l-3.798 28.146c-.503 3.758-5.782 4.131-6.819.494l-14.607-51.325c-1.673-5.854.765-12.107 5.943-15.303z"/></svg><svg viewBox="0 0 300 300" id="twitter" xmlns="http://www.w3.org/2000/svg"><path d="M293.2 55.537a113.744 113.744 0 01-14.51 5.287 64.133 64.133 0 0013.059-22.965 4.837 4.837 0 00-1.595-5.259 4.837 4.837 0 00-5.482-.377 114.185 114.185 0 01-33.753 13.338c-11.982-11.707-28.255-18.37-45.078-18.37-35.512 0-64.403 28.89-64.403 64.4 0 2.797.177 5.578.528 8.32C97.9 96.044 56.932 74.385 28.8 39.876a4.84 4.84 0 00-7.932.621c-5.705 9.79-8.722 20.988-8.722 32.382 0 15.517 5.54 30.241 15.327 41.745a54.488 54.488 0 01-8.62-3.848 4.837 4.837 0 00-7.187 4.119c-.007.286-.007.571-.007.861 0 23.162 12.467 44.016 31.526 55.382a55.187 55.187 0 01-4.9-.711 4.837 4.837 0 00-5.514 6.23c7.054 22.025 25.218 38.226 47.176 43.166-18.212 11.406-39.039 17.381-60.902 17.381-4.562 0-9.15-.268-13.64-.799a4.839 4.839 0 00-3.18 8.878c28.087 18.009 60.563 27.527 93.916 27.527 65.569 0 106.586-30.919 129.449-56.857 28.51-32.343 44.861-75.153 44.861-117.452 0-1.767-.027-3.552-.081-5.33 11.248-8.475 20.932-18.731 28.812-30.52a4.838 4.838 0 00-5.982-7.113z"/></svg></svg>