<svg width="300" height="300" viewBox="0 0 300 300" xmlns="http://www.w3.org/2000/svg"><path d="M293.2 55.5368C288.487 57.6271 283.641 59.3913 278.69 60.8236C284.552 54.1945 289.021 46.3945 291.749 37.8591C292.361 35.9458 291.727 33.8516 290.154 32.6004C288.584 31.3481 286.401 31.1981 284.672 32.2229C274.157 38.4591 262.814 42.9407 250.919 45.5613C238.937 33.8536 222.664 27.1907 205.841 27.1907C170.329 27.1907 141.438 56.0807 141.438 91.591C141.438 94.3878 141.615 97.1691 141.966 99.9116C97.8997 96.0426 56.9323 74.3836 28.8 39.8749C27.7974 38.6449 26.2529 37.982 24.6716 38.1087C23.0894 38.2326 21.6677 39.1249 20.8684 40.4962C15.1626 50.2868 12.1461 61.4845 12.1461 72.8778C12.1461 88.3955 17.6865 103.119 27.4732 114.623C24.4974 113.593 21.6097 112.305 18.8536 110.775C17.3739 109.951 15.5681 109.964 14.0981 110.806C12.6271 111.649 11.7048 113.2 11.6661 114.894C11.6594 115.18 11.6594 115.465 11.6594 115.755C11.6594 138.917 24.1258 159.771 43.1855 171.137C41.5481 170.974 39.9116 170.737 38.2858 170.426C36.6097 170.106 34.8861 170.693 33.7558 171.972C32.6236 173.249 32.249 175.03 32.7707 176.656C39.8255 198.681 57.989 214.882 79.9471 219.822C61.7352 231.228 40.9084 237.203 19.0452 237.203C14.4832 237.203 9.89517 236.935 5.40484 236.404C3.1742 236.139 1.04129 237.456 0.281617 239.577C-0.47806 241.699 0.327101 244.066 2.22484 245.282C30.3116 263.291 62.7881 272.809 96.1413 272.809C161.71 272.809 202.727 241.89 225.59 215.952C254.1 183.609 270.451 140.799 270.451 98.4997C270.451 96.7326 270.424 94.9481 270.37 93.1694C281.618 84.6949 291.302 74.4387 299.182 62.6507C300.379 60.8604 300.25 58.4942 298.863 56.8462C297.478 55.1971 295.17 54.6639 293.2 55.5368Z"/></svg>