<svg width="28" height="28" viewBox="0 0 28 28" xmlns="http://www.w3.org/2000/svg"><path fill-rule="evenodd" clip-rule="evenodd" d="M18.4674 2.1331C19.6471 1.74332 20.9194 2.38372 21.3092 3.56348L21.8027 5.0572H9.61646L18.4674 2.1331ZM20.0912 20.5036C18.8453 20.5036 17.8317 19.49 17.8317 18.2441V14.4918C17.8317 13.2459 18.8453 12.2323 20.0912 12.2323H25.9786C26.0143 12.2323 26.0497 12.2334 26.085 12.235V8.49702C26.085 7.53483 25.305 6.75482 24.3428 6.75482H2.74225C1.78 6.75477 1 7.53477 1 8.49696V24.2389C1 25.201 1.78 25.9811 2.74225 25.9811H24.3428C25.305 25.9811 26.085 25.2011 26.085 24.2389V20.5009C26.0497 20.5025 26.0143 20.5036 25.9786 20.5036H20.0912ZM25.9786 13.4704H20.0912C19.5271 13.4704 19.0698 13.9277 19.0698 14.4918V18.2442C19.0698 18.8082 19.5271 19.2655 20.0912 19.2655H25.9786C26.5427 19.2655 27 18.8083 27 18.2442V14.4918C27 13.9276 26.5427 13.4704 25.9786 13.4704ZM22.1199 17.8421C21.3057 17.8421 20.6456 17.1821 20.6456 16.3679C20.6456 15.5537 21.3057 14.8937 22.1199 14.8937C22.9341 14.8937 23.5941 15.5537 23.5941 16.3679C23.5941 17.1821 22.9341 17.8421 22.1199 17.8421Z"/></svg>