<svg width="28" height="28" viewBox="0 0 28 28" fill="none" xmlns="http://www.w3.org/2000/svg">
<path d="M25.6442 12.3243V11.3201C25.6442 9.48386 24.3841 7.9403 22.6845 7.49801L22.6814 5.84235C22.6814 4.22655 21.3665 2.91162 19.75 2.91162H19.595L5.87602 7.16749C5.56356 7.18555 5.26712 7.25779 4.98873 7.36649H4.95295C2.77356 7.36649 1 9.14005 1 11.3201V21.1349C1 23.3146 2.77322 25.0885 4.95295 25.0885H21.6912C23.8706 25.0885 25.6442 23.3149 25.6442 21.1349V19.8295C26.4357 19.5231 27 18.7558 27 17.8569V14.2962C26.9997 13.398 26.4357 12.6306 25.6442 12.3243ZM24.9552 17.8566C24.9552 17.8968 24.9235 17.9285 24.8833 17.9285H19.3493C19.3091 17.9285 19.2778 17.8968 19.2778 17.8566V14.2962C19.2778 14.257 19.3098 14.2249 19.3493 14.2249H24.8833C24.9228 14.2249 24.9552 14.257 24.9552 14.2962V17.8566ZM19.8764 4.96527C20.3061 5.02661 20.637 5.39665 20.637 5.84405L20.6397 7.36683H12.1351L19.8764 4.96527ZM21.6912 23.0437H4.95329C3.89938 23.0437 3.04479 22.1888 3.04479 21.1345V11.3201C3.04479 10.2655 3.89938 9.41094 4.95329 9.41094H21.6912C22.7455 9.41094 23.5997 10.2655 23.5997 11.3201V12.1805H19.3493C18.1826 12.1805 17.2333 13.1295 17.2333 14.2962V17.8566C17.2333 19.0236 18.1826 19.9729 19.3493 19.9729H23.5997V21.1349C23.5997 22.1888 22.7455 23.0437 21.6912 23.0437Z" fill="url(#paint0_linear_38_32)"/>
<defs>
<linearGradient id="paint0_linear_38_32" x1="15.7096" y1="2.91162" x2="15.7096" y2="25.0885" gradientUnits="userSpaceOnUse">
<stop stop-color="#FB7389"/>
<stop offset="1" stop-color="#9F42FF"/>
</linearGradient>
</defs>
</svg>
