<svg width="74" height="74" viewBox="0 0 74 74" fill="none" xmlns="http://www.w3.org/2000/svg">
<path d="M38.1997 29.9723C33.8754 23.489 36.4699 4.89432 32.5791 3.7731C29.1207 2.73451 18.3957 9.82619 13.1216 19.2518C7.84569 28.6784 1.36124 42.7706 14.506 51.68C21.6814 57.2124 12.4318 59.8073 10.7869 55.398C10.6337 64.3661 19.4432 64.5966 20.7318 58.2512C21.628 53.8333 16.2586 44.5653 14.5929 40.0912C10.5271 29.1967 22.5473 14.5809 22.5473 14.5809C22.5473 14.5809 11.8246 32.2228 16.1477 40.7846C30.9364 62.5758 21.0924 62.0566 17.2712 64.6532C31.7132 65.3443 36.6774 52.6081 37.5076 50.9022C39.4078 45.7998 38.2408 36.7199 33.5287 32.3988C32.4053 31.4036 31.3676 32.614 27.4539 32.3988C23.5403 32.1804 25.6599 28.5069 25.6599 28.5069C25.6599 28.5069 24.3094 27.3605 24.2757 26.864C24.2432 26.3685 25.484 25.9992 25.484 25.9992C25.484 25.9992 24.2737 25.3494 24.1877 24.7889C24.103 24.2228 25.4872 22.8831 25.4872 22.8831C25.4872 22.8831 23.6598 22.0399 23.6261 21.1967C23.5935 20.3537 25.6199 18.9628 27.5605 14.9285C29.0295 11.8797 28.9447 6.8003 31.2785 5.63125C32.6626 8.01084 26.9574 26.1697 36.295 31.9641C38.0236 32.9147 49.093 41.5625 40.012 52.7166C50.0449 45.7127 40.9181 33.9654 38.1997 29.9723Z" fill="url(#paint0_linear_1_2)"/>
<path d="M45.5489 2.5607C49.8731 7.66526 45.4618 26.9487 55.6664 33.3462C69.5001 43.2053 59.7495 56.4956 57.7418 60.068C61.2012 50.0374 60.9426 44.8481 59.2975 40.7846C57.6526 36.722 47.2784 25.9123 45.6356 20.4622C43.9929 15.0134 43.4736 -0.0295445 35.5136 2.70957C42.8693 11.9895 38.4146 20.4981 48.4452 33.2593C58.4759 46.0194 56.4421 63.9578 48.0585 68.106C61.1575 50.7697 49.6143 37.236 46.2417 31.8727C44.4576 29.0359 40.7093 26.6857 40.3615 20.1155C40.0159 13.5421 35.4483 2.16934 33.6175 2.82142C38.3733 12.2469 33.4437 25.4774 44.0797 38.1897C51.3418 46.1452 54.5448 63.4404 42.2673 72C55.1511 71.4806 62.5873 57.734 65.6993 48.8246C69.8498 36.4588 58.0023 25.8252 55.7552 21.4999C53.5066 17.1732 52.2939 2.64965 45.5489 2.5607Z" fill="url(#paint1_linear_1_2)"/>
<path d="M62.1509 16.5258C58.0003 9.91105 52.2442 6.03211 50.0928 4.39913C55.9903 14.5809 55.5993 19.1203 57.7397 22.2355C59.8802 25.3474 63.6417 26.0633 67.2099 37.1915C67.3379 35.6093 66.3015 23.1436 62.1509 16.5258Z" fill="url(#paint2_linear_1_2)"/>
<path d="M44.608 9.91309C44.8991 11.531 46.3247 19.8993 47.4284 21.4574C46.7179 11.2105 47.6914 11.7928 46.8462 7.96617C46.0009 4.13822 44.5101 2.06402 39.5818 2C44.5101 6.15045 44.3168 8.29537 44.608 9.91309Z" fill="url(#paint3_linear_1_2)"/>
<defs>
<linearGradient id="paint0_linear_1_2" x1="25.6929" y1="3.67204" x2="25.6929" y2="64.6803" gradientUnits="userSpaceOnUse">
<stop stop-color="#FB7389"/>
<stop offset="1" stop-color="#9F42FF"/>
</linearGradient>
<linearGradient id="paint1_linear_1_2" x1="50.0957" y1="2.37935" x2="50.0957" y2="72" gradientUnits="userSpaceOnUse">
<stop stop-color="#FB7389"/>
<stop offset="1" stop-color="#9F42FF"/>
</linearGradient>
<linearGradient id="paint2_linear_1_2" x1="58.6564" y1="4.39913" x2="58.6564" y2="37.1915" gradientUnits="userSpaceOnUse">
<stop stop-color="#FB7389"/>
<stop offset="1" stop-color="#9F42FF"/>
</linearGradient>
<linearGradient id="paint3_linear_1_2" x1="43.5051" y1="2" x2="43.5051" y2="21.4574" gradientUnits="userSpaceOnUse">
<stop stop-color="#FB7389"/>
<stop offset="1" stop-color="#9F42FF"/>
</linearGradient>
</defs>
</svg>
