<svg width="74" height="74" viewBox="0 0 74 74" fill="none" xmlns="http://www.w3.org/2000/svg">
<path fill-rule="evenodd" clip-rule="evenodd" d="M22.4875 7.4892L23.9322 9.98571C24.2215 10.489 24.299 11.0867 24.1478 11.6472C23.9965 12.2077 23.6288 12.6851 23.1255 12.9746C22.7945 13.1671 22.4184 13.2684 22.0355 13.2682C21.6511 13.2681 21.2735 13.1669 20.9407 12.9747C20.6078 12.7825 20.3314 12.5061 20.1391 12.1732L18.7011 9.67659C18.556 9.42791 18.4615 9.15302 18.4229 8.86771C18.3843 8.58239 18.4025 8.29227 18.4763 8.01398C18.5502 7.7357 18.6782 7.47474 18.8532 7.24609C19.0281 7.01744 19.2465 6.82559 19.4958 6.68156C19.7451 6.53753 20.0204 6.44416 20.3059 6.4068C20.5914 6.36944 20.8814 6.38883 21.1594 6.46386C21.4374 6.53888 21.6978 6.66807 21.9257 6.84401C22.1536 7.01994 22.3445 7.23929 22.4875 7.4892ZM55.2996 64.324C55.4447 64.5726 55.5392 64.8475 55.5778 65.1328C55.6164 65.4182 55.5982 65.7083 55.5244 65.9866C55.4505 66.2648 55.3225 66.5258 55.1475 66.7545C54.9725 66.9831 54.7541 67.175 54.5048 67.319C54.2555 67.463 53.9803 67.5564 53.6948 67.5937C53.4093 67.6311 53.1193 67.6117 52.8413 67.5367C52.5633 67.4617 52.3029 67.3325 52.075 67.1565C51.8471 66.9806 51.6562 66.7614 51.5132 66.5115L50.0684 64.015C49.7783 63.512 49.6999 62.9144 49.8504 62.3537C50.0009 61.7929 50.368 61.3149 50.871 61.0248C51.3739 60.7347 51.9715 60.6563 52.5323 60.8068C53.0931 60.9574 53.5711 61.3245 53.8611 61.8274L55.2996 64.3238V64.324ZM7.4907 22.4888C6.98811 22.1989 6.62129 21.7211 6.47094 21.1607C6.32059 20.6003 6.39902 20.0031 6.68897 19.5005C6.97893 18.9979 7.45667 18.6311 8.01708 18.4807C8.5775 18.3304 9.17469 18.4088 9.67728 18.6988L12.1735 20.14C12.6761 20.4299 13.0429 20.9076 13.1933 21.4681C13.3436 22.0285 13.2652 22.6257 12.9753 23.1283C12.6853 23.6308 12.2076 23.9977 11.6471 24.148C11.0867 24.2984 10.4895 24.2199 9.98695 23.93L7.4907 22.4888ZM67.3098 54.5007C67.02 55.0029 66.5426 55.3695 65.9825 55.5197C65.4225 55.67 64.8257 55.5917 64.3234 55.302L61.8272 53.8609C61.5783 53.7173 61.3602 53.5261 61.1852 53.2982C61.0103 53.0704 60.8819 52.8103 60.8074 52.5328C60.733 52.2553 60.7139 51.9659 60.7514 51.681C60.7888 51.3962 60.8819 51.1215 61.0255 50.8726C61.1691 50.6238 61.3603 50.4056 61.5881 50.2307C61.816 50.0557 62.0761 49.9274 62.3536 49.8529C62.914 49.7026 63.5112 49.781 64.0137 50.071L66.51 51.5119C66.7588 51.6556 66.9768 51.8469 67.1516 52.0749C67.3265 52.3028 67.4547 52.563 67.5289 52.8406C67.6032 53.1181 67.6221 53.4075 67.5845 53.6924C67.5469 53.9772 67.4535 54.2518 67.3098 54.5006V54.5007ZM71.9993 37.0005C71.9998 37.2878 71.9436 37.5724 71.834 37.838C71.7243 38.1036 71.5632 38.3449 71.3601 38.5481C71.157 38.7513 70.9157 38.9125 70.6502 39.0223C70.3847 39.1321 70.1001 39.1884 69.8127 39.188H66.9227C66.3426 39.188 65.7862 38.9575 65.3759 38.5473C64.9657 38.1371 64.7352 37.5806 64.7352 37.0005C64.7352 36.4203 64.9657 35.8639 65.3759 35.4537C65.7862 35.0434 66.3426 34.8129 66.9227 34.8129H69.8125C70.0998 34.8126 70.3844 34.8689 70.6499 34.9787C70.9154 35.0885 71.1567 35.2497 71.3598 35.4529C71.5629 35.6561 71.7239 35.8974 71.8336 36.163C71.9433 36.4285 71.9995 36.7131 71.999 37.0005H71.9993ZM7.07794 39.188H4.18822C3.60805 39.188 3.05164 38.9575 2.6414 38.5473C2.23116 38.1371 2.00069 37.5806 2.00069 37.0005C2.00069 36.4203 2.23116 35.8639 2.6414 35.4537C3.05164 35.0434 3.60805 34.8129 4.18822 34.8129H7.07794C7.65811 34.8129 8.21452 35.0434 8.62476 35.4537C9.035 35.8639 9.26547 36.4203 9.26547 37.0005C9.26547 37.5806 9.035 38.1371 8.62476 38.5473C8.21452 38.9575 7.65811 39.188 7.07794 39.188ZM61.0279 23.1291C60.8841 22.8803 60.7908 22.6057 60.7532 22.3208C60.7155 22.036 60.7344 21.7465 60.8087 21.469C60.883 21.1914 61.0112 20.9312 61.186 20.7032C61.3609 20.4752 61.5789 20.2839 61.8277 20.1402L64.324 18.6991C64.8265 18.4091 65.4237 18.3307 65.9842 18.481C66.5446 18.6314 67.0223 18.9982 67.3123 19.5008C67.6022 20.0034 67.6806 20.6006 67.5303 21.161C67.3799 21.7214 67.0131 22.1991 66.5105 22.4891L64.0137 23.93C63.6827 24.1224 63.3065 24.2235 62.9237 24.2227C62.5394 24.2228 62.1619 24.1217 61.8291 23.9297C61.4962 23.7377 61.2197 23.4616 61.0273 23.1289L61.0279 23.1291ZM12.9733 50.8719C13.1171 51.1206 13.2105 51.3953 13.2481 51.6801C13.2857 51.965 13.2668 52.2544 13.1925 52.532C13.1183 52.8095 12.9901 53.0697 12.8152 53.2977C12.6404 53.5257 12.4223 53.717 12.1735 53.8607L9.67728 55.3019C9.17469 55.5919 8.5775 55.6703 8.01708 55.5199C7.45667 55.3696 6.97893 55.0028 6.68897 54.5002C6.39902 53.9976 6.32059 53.4004 6.47094 52.84C6.62129 52.2796 6.98811 51.8018 7.4907 51.5119L9.98695 50.071C10.2356 49.9274 10.5101 49.8343 10.7948 49.7969C11.0795 49.7594 11.3687 49.7784 11.646 49.8528C11.9234 49.9272 12.1833 50.0555 12.4111 50.2303C12.6388 50.4052 12.8299 50.6232 12.9733 50.8719ZM54.4998 6.68952C54.7485 6.83304 54.9666 7.02419 55.1414 7.25203C55.3163 7.47987 55.4445 7.73993 55.5188 8.01736C55.593 8.29479 55.6119 8.58413 55.5743 8.86886C55.5367 9.15358 55.4433 9.4281 55.2996 9.67673L53.8611 12.1732C53.6688 12.5059 53.3923 12.7821 53.0595 12.9741C52.7266 13.1661 52.3491 13.2671 51.9648 13.267C51.582 13.2677 51.2058 13.1667 50.8748 12.9746C50.3715 12.6851 50.0038 12.2076 49.8526 11.6472C49.7013 11.0867 49.7788 10.4891 50.0681 9.98571L51.513 7.4892C51.6565 7.24056 51.8477 7.02265 52.0754 6.84789C52.3032 6.67313 52.5632 6.54496 52.8406 6.47068C53.1179 6.39641 53.4071 6.3775 53.6918 6.41502C53.9764 6.45255 54.2509 6.54577 54.4995 6.68938L54.4998 6.68952ZM23.9322 64.0148L22.4875 66.5113C22.2951 66.844 22.0186 67.1202 21.6857 67.3122C21.3528 67.5042 20.9753 67.6052 20.591 67.6051C20.2074 67.6043 19.8307 67.5027 19.4988 67.3103C19.1669 67.118 18.8914 66.8418 18.7 66.5094C18.5085 66.177 18.4078 65.8 18.408 65.4164C18.4082 65.0328 18.5093 64.656 18.7011 64.3238L20.1395 61.8274C20.4313 61.3278 20.909 60.9639 21.4682 60.8154C22.0274 60.6669 22.6226 60.7459 23.1238 61.0349C23.625 61.324 23.9914 61.7998 24.1429 62.3582C24.2943 62.9166 24.2186 63.5121 23.9322 64.0148ZM37.0003 2C37.5803 2.00025 38.1365 2.23084 38.5465 2.64105C38.9566 3.05126 39.1869 3.60753 39.1869 4.18753V7.07507C39.1869 7.65498 38.9565 8.21115 38.5465 8.62121C38.1364 9.03127 37.5803 9.26164 37.0003 9.26164C36.4204 9.26164 35.8643 9.03127 35.4542 8.62121C35.0441 8.21115 34.8138 7.65498 34.8138 7.07507V4.18753C34.8138 3.60753 35.0441 3.05126 35.4541 2.64105C35.8642 2.23084 36.4203 2.00025 37.0003 2ZM39.1869 66.9256V69.8134C39.1869 70.3933 38.9565 70.9495 38.5465 71.3596C38.1364 71.7696 37.5803 72 37.0003 72C36.4204 72 35.8643 71.7696 35.4542 71.3596C35.0441 70.9495 34.8138 70.3933 34.8138 69.8134V66.9259C34.8138 66.346 35.0441 65.7898 35.4542 65.3797C35.8643 64.9697 36.4204 64.7393 37.0003 64.7393C37.5803 64.7393 38.1364 64.9697 38.5465 65.3797C38.9565 65.7898 39.1869 66.346 39.1869 66.9259V66.9256ZM19.5009 37.0005C19.5009 28.0919 26.1898 20.7171 34.8136 19.637V54.364C26.1897 53.2839 19.5009 45.9092 19.5009 37.0005ZM37.0003 15.1252C24.9384 15.1252 15.1278 24.9388 15.1278 37.0005C15.1278 49.0621 24.9384 58.8758 37.0003 58.8758C49.0622 58.8758 58.8729 49.0618 58.8729 37.0005C58.8729 24.9391 49.0622 15.1252 37.0003 15.1252Z" fill="url(#paint0_linear_1_2)"/>
<defs>
<linearGradient id="paint0_linear_1_2" x1="37" y1="2" x2="37" y2="72" gradientUnits="userSpaceOnUse">
<stop stop-color="#FB7389"/>
<stop offset="1" stop-color="#9F42FF"/>
</linearGradient>
</defs>
</svg>
