<svg width="74" height="74" viewBox="0 0 74 74" fill="none" xmlns="http://www.w3.org/2000/svg">
<path d="M55.7499 63.874C48.6737 63.874 41.58 60.1503 38.8625 58.554C48.6712 46.7878 64.7261 42.8591 70.8623 41.7516C71.6245 43.859 72.0096 46.0843 71.9998 48.3253C71.9998 57.4803 65.3174 63.874 55.7499 63.874ZM3.14263 41.7491C9.2676 42.8566 25.3288 46.7853 35.1425 58.5528C32.4237 60.1515 25.3413 63.874 18.2501 63.874C8.68261 63.874 2.00014 57.4803 2.00014 48.3253C1.99168 46.0831 2.37843 43.857 3.14263 41.7491ZM57.7374 3.98301C58.3709 3.70446 59.1105 3.98837 59.3949 4.61926C63.1449 13.0517 64.1361 25.4192 64.4024 31.4491C63.563 31.5035 62.728 31.6112 61.9024 31.7716C61.6724 26.3204 60.7499 13.8142 57.0974 5.613C57.0302 5.45897 56.9969 5.29228 56.9999 5.12425C56.9942 4.63025 57.2847 4.18079 57.7374 3.98301ZM56.3261 10.808C58.6536 18.5767 59.2724 28.2254 59.4299 32.4166C58.3499 32.7731 57.2947 33.2007 56.2711 33.6966C55.5766 26.082 55.595 18.4192 56.3261 10.808ZM52.6937 38.6641C56.3249 36.2491 60.3661 33.9991 65.3373 33.8741C67.1822 35.4001 68.7051 37.2778 69.8173 39.3979C63.8249 40.5428 50.6062 43.9753 40.6925 53.039C43.3842 47.2913 47.5189 42.3388 52.6937 38.6641ZM14.5688 32.4141C14.7263 28.2242 15.3438 18.5729 17.6726 10.8055C18.4037 18.4167 18.4221 26.0795 17.7276 33.6941C16.7044 33.1991 15.6496 32.7724 14.5701 32.4166L14.5688 32.4141ZM14.6038 4.62426C14.8893 3.99595 15.6249 3.71148 16.2588 3.98426C16.7119 4.18151 17.0036 4.6301 17.0001 5.12425C17.0018 5.29657 16.966 5.46719 16.8951 5.62425C13.2501 13.8267 12.3276 26.3229 12.0938 31.7716C11.2682 31.6112 10.4332 31.5035 9.59385 31.4491C9.86385 25.4192 10.8613 13.0517 14.6038 4.62426ZM8.66261 33.8741C13.6338 33.9929 17.6751 36.2379 21.3063 38.6591C26.4842 42.3365 30.6207 47.293 33.3125 53.0453C23.395 43.9803 10.1751 40.5453 4.18763 39.4029C5.29787 37.2814 6.81905 35.402 8.66261 33.8741ZM70.0736 69.209C69.9225 69.7523 69.4263 70.1271 68.8623 70.124H5.13762C4.5737 70.1271 4.0775 69.7523 3.92638 69.209C3.1289 65.6331 2.61563 61.9997 2.39138 58.3428C5.95445 63.5579 11.9376 66.5879 18.2501 66.374C26.605 66.374 34.6375 61.8165 37 60.3553C39.3625 61.8165 47.3949 66.374 55.7499 66.374C62.0623 66.5879 68.0455 63.5579 71.6086 58.3428C71.3848 61.9997 70.8715 65.6331 70.0736 69.209Z" fill="url(#paint0_linear_1_2)"/>
<defs>
<linearGradient id="paint0_linear_1_2" x1="37" y1="3.87602" x2="37" y2="70.124" gradientUnits="userSpaceOnUse">
<stop stop-color="#FB7389"/>
<stop offset="1" stop-color="#9F42FF"/>
</linearGradient>
</defs>
</svg>
