<svg width="74" height="74" viewBox="0 0 74 74" fill="none" xmlns="http://www.w3.org/2000/svg">
<path fill-rule="evenodd" clip-rule="evenodd" d="M49.2227 6.9985C49.1496 6.99711 49.0766 6.99972 49.0039 7.00631H25.0117C24.9428 7.00274 24.8737 7.00274 24.8047 7.00631C24.3034 7.06925 23.8445 7.31955 23.5202 7.70692C23.1958 8.09429 23.0301 8.59004 23.0564 9.09455C23.0826 9.59907 23.2988 10.075 23.6615 10.4266C24.0242 10.7783 24.5066 10.9797 25.0117 10.9904H49.0039C49.2711 11.014 49.5404 10.9836 49.7957 10.901C50.0509 10.8184 50.2869 10.6853 50.4897 10.5096C50.6925 10.334 50.8578 10.1193 50.9759 9.87841C51.094 9.63753 51.1624 9.37537 51.1771 9.10751C51.1918 8.83965 51.1524 8.57157 51.0613 8.31923C50.9703 8.0669 50.8294 7.83546 50.647 7.63869C50.4647 7.44192 50.2446 7.28384 49.9999 7.17385C49.7552 7.06387 49.4909 7.00424 49.2227 6.9985ZM17.0117 14.99C16.4808 14.99 15.9716 15.2009 15.5961 15.5763C15.2207 15.9517 15.0098 16.4609 15.0098 16.9918C15.0098 17.5227 15.2207 18.0319 15.5961 18.4073C15.9716 18.7827 16.4808 18.9936 17.0117 18.9936H57.0039C57.5349 18.9936 58.0441 18.7827 58.4195 18.4073C58.7949 18.0319 59.0059 17.5227 59.0059 16.9918C59.0059 16.4609 58.7949 15.9517 58.4195 15.5763C58.0441 15.2009 57.5349 14.99 57.0039 14.99H17.0117ZM13.0117 22.9933C9.72236 22.9933 7 25.7115 7 29.0006V60.994C7 64.2832 9.72232 67.0014 13.0117 67.0014H21.0117C21.2781 67.0073 21.5431 66.96 21.791 66.8622C22.0388 66.7644 22.2647 66.6181 22.4552 66.4318C22.6458 66.2455 22.7972 66.023 22.9005 65.7774C23.0039 65.5318 23.0571 65.268 23.0571 65.0015C23.0571 64.7351 23.0039 64.4713 22.9005 64.2257C22.7972 63.9801 22.6458 63.7576 22.4552 63.5713C22.2647 63.385 22.0388 63.2386 21.791 63.1408C21.5431 63.043 21.2781 62.9957 21.0117 63.0017H13.0117C12.7581 63.0017 12.5245 62.9399 12.3047 62.8611L27.5937 47.585C28.3918 46.7876 29.621 46.7904 30.4219 47.5889L35.6055 52.7564C35.9809 53.1296 36.489 53.3388 37.0184 53.338C37.5478 53.3373 38.0553 53.1268 38.4297 52.7525L51.5977 39.5817C51.9594 39.2197 52.4536 39.012 52.9766 39.0037C53.5289 38.9961 54.0496 39.2053 54.4258 39.5817L63.0156 48.1787V60.994C63.0156 62.1366 62.1504 63.0017 61.0078 63.0017H37C36.7336 62.9957 36.4686 63.043 36.2208 63.1408C35.9729 63.2386 35.747 63.385 35.5565 63.5713C35.366 63.7576 35.2146 63.9801 35.1112 64.2257C35.0078 64.4713 34.9546 64.7351 34.9546 65.0015C34.9546 65.268 35.0078 65.5318 35.1112 65.7774C35.2146 66.023 35.366 66.2455 35.5565 66.4318C35.747 66.6181 35.9729 66.7644 36.2208 66.8622C36.4686 66.96 36.7336 67.0073 37 67.0014H61.0078C64.2972 67.0014 67 64.2832 67 60.994V29.0006C67 25.7115 64.2972 22.9933 61.0078 22.9933H13.0117ZM13.0117 26.9929H61.0078C62.1504 26.9929 63.0156 27.8581 63.0156 29.0006V42.519L57.2539 36.7539C56.0994 35.5985 54.5271 34.9792 52.9141 35.004C51.3638 35.0267 49.8738 35.6495 48.7695 36.7539L37.0117 48.5107L33.2422 44.7532C30.9161 42.4343 27.091 42.4336 24.7656 44.7571L11 58.5138V29.0006C11 27.8581 11.8691 26.9929 13.0117 26.9929ZM21.0117 30.9965C17.7217 30.9965 15.0039 33.7141 15.0039 37.0038C15.0039 40.2936 17.7217 42.9955 21.0117 42.9955C24.3017 42.9955 27.0039 40.2936 27.0039 37.0038C27.0039 33.7141 24.3017 30.9965 21.0117 30.9965ZM21.0117 34.9962C22.14 34.9962 23.0039 35.8757 23.0039 37.0038C23.0039 38.132 22.14 38.9959 21.0117 38.9959C19.8835 38.9959 19.0039 38.132 19.0039 37.0038C19.0039 35.8757 19.8835 34.9962 21.0117 34.9962ZM29.0078 62.9939C28.7452 62.9939 28.4851 63.0456 28.2424 63.1461C27.9998 63.2466 27.7793 63.3939 27.5936 63.5796C27.4079 63.7653 27.2606 63.9858 27.1601 64.2284C27.0595 64.471 27.0078 64.7311 27.0078 64.9937C27.0078 65.2563 27.0595 65.5164 27.1601 65.759C27.2606 66.0016 27.4079 66.2221 27.5936 66.4078C27.7793 66.5935 27.9998 66.7408 28.2424 66.8413C28.4851 66.9418 28.7452 66.9935 29.0078 66.9935C29.2705 66.9935 29.5305 66.9418 29.7732 66.8413C30.0158 66.7408 30.2363 66.5935 30.422 66.4078C30.6077 66.2221 30.7551 66.0016 30.8556 65.759C30.9561 65.5164 31.0078 65.2563 31.0078 64.9937C31.0078 64.7311 30.9561 64.471 30.8556 64.2284C30.7551 63.9858 30.6077 63.7653 30.422 63.5796C30.2363 63.3939 30.0158 63.2466 29.7732 63.1461C29.5305 63.0456 29.2705 62.9939 29.0078 62.9939Z" fill="url(#paint0_linear_17_9)"/>
<defs>
<linearGradient id="paint0_linear_17_9" x1="37" y1="6.99814" x2="37" y2="67.0019" gradientUnits="userSpaceOnUse">
<stop stop-color="#FB7389"/>
<stop offset="1" stop-color="#9F42FF"/>
</linearGradient>
</defs>
</svg>
