<svg width="74" height="74" viewBox="0 0 74 74" fill="none" xmlns="http://www.w3.org/2000/svg">
<g clip-path="url(#clip0_17_4)">
<path d="M2.89071 23.1253H11.5625C13.159 23.1253 14.4532 24.4194 14.4532 26.0159C14.4532 27.6124 13.159 28.9065 11.5625 28.9065H2.89071C1.29422 28.9065 9.3223e-05 27.6124 9.3223e-05 26.0159C9.3223e-05 24.4194 1.29422 23.1253 2.89071 23.1253ZM26.0156 14.4535C24.4191 14.4535 23.125 13.1594 23.125 11.5629V2.89103C23.125 1.29454 24.4191 0.000411987 26.0156 0.000411987C27.6121 0.000411987 28.9062 1.29454 28.9062 2.89103V11.5629C28.9062 13.1594 27.612 14.4535 26.0156 14.4535ZM13.7518 17.84L7.61975 11.7081C6.49082 10.5792 6.49082 8.749 7.61975 7.62021C8.74868 6.49128 10.5789 6.49128 11.7077 7.62021L17.8397 13.7521C18.9686 14.881 18.9686 16.7112 17.8397 17.84C16.7106 18.9691 14.8804 18.9688 13.7518 17.84ZM38.2793 17.84C37.1504 18.9689 35.3202 18.9688 34.1914 17.84C33.0625 16.711 33.0625 14.8809 34.1914 13.7521L40.3234 7.62021C41.4524 6.49128 43.2825 6.49128 44.4113 7.62021C45.5401 8.74914 45.5403 10.5793 44.4113 11.7081L38.2793 17.84ZM13.7518 34.1917C14.8807 33.0628 16.7109 33.0628 17.8397 34.1917C18.9684 35.3207 18.9686 37.1509 17.8397 38.2796L11.7077 44.4117C10.5787 45.5406 8.74853 45.5404 7.61975 44.4117C6.49082 43.2827 6.49082 41.4525 7.61975 40.3237L13.7518 34.1917ZM25.8743 22.1532L72.1241 39.4969C73.1761 39.8915 73.9043 40.86 73.9911 41.9802C74.078 43.1005 73.5077 44.1696 72.5289 44.7214L62.589 50.3261L73.1534 60.8906C74.2824 62.0195 74.2824 63.8497 73.1534 64.9785L64.9785 73.1535C63.8496 74.2824 62.0194 74.2824 60.8906 73.1535L50.3261 62.589L44.7211 72.5292C44.1713 73.5044 43.1048 74.0783 41.9799 73.9914C40.8596 73.9046 39.8911 73.1764 39.4966 72.1244L22.1529 25.8746C21.7549 24.8133 22.014 23.6172 22.8154 22.8156C23.6168 22.0143 24.8128 21.755 25.8743 22.1532ZM42.7316 64.2868L47.16 56.4333C47.604 55.646 48.3906 55.1115 49.2861 54.9891C50.1813 54.8666 51.0827 55.1699 51.722 55.809L62.9345 67.0216L67.0216 62.9346L55.809 51.722C55.1699 51.0829 54.8665 50.1816 54.9891 49.2861C55.1117 48.3906 55.646 47.6039 56.4333 47.16L64.2863 42.7321L29.7987 29.7992L42.7316 64.2868Z" fill="url(#paint0_linear_17_4)"/>
</g>
<defs>
<linearGradient id="paint0_linear_17_4" x1="37.0001" y1="0.000411987" x2="37.0001" y2="74.0002" gradientUnits="userSpaceOnUse">
<stop stop-color="#FB7389"/>
<stop offset="1" stop-color="#9F42FF"/>
</linearGradient>
<clipPath id="clip0_17_4">
<rect width="74" height="74" fill="white" transform="matrix(-1 0 0 1 74 0)"/>
</clipPath>
</defs>
</svg>
