<svg width="74" height="74" viewBox="0 0 74 74" fill="none" xmlns="http://www.w3.org/2000/svg">
<path d="M68.4228 40.0909C68.1626 39.3736 67.885 38.4977 67.5958 37.5108L67.0733 39.6057C66.0318 43.4266 62.1653 46.8604 56.9738 48.5901C54.2981 49.4823 51.5327 50.5321 49.7039 52.6701C47.0878 55.7282 47.1531 59.7417 48.0733 62.5806C48.0126 62.5585 47.9521 62.5387 47.8914 62.5153C46.9431 62.1515 46.0824 61.6418 45.3196 61.0282C44.7784 57.4206 45.6857 53.7792 47.931 51.1538C50.1494 48.5622 53.2508 47.3737 56.2367 46.3776C60.6968 44.8917 63.9836 42.0702 64.8164 39.0156L66.3547 32.8642C63.5532 21.6134 60.3492 4.3385 60.3083 4.11927C60.2244 3.67026 59.8872 3.31092 59.4441 3.20021L54.7787 2.0339C54.7297 2.02105 54.6796 2.02105 54.6305 2.01517C54.5991 2.01162 54.5698 2.00123 54.5384 2C54.5314 2 54.5232 2.00232 54.515 2.00232C54.4613 2.00109 54.4077 2.00929 54.354 2.01627C54.1137 2.04429 53.8932 2.13873 53.7183 2.29742C53.7147 2.30098 53.7101 2.30207 53.7067 2.30562L53.7054 2.30685C53.6635 2.3454 53.6308 2.3931 53.5946 2.43752C53.5666 2.47251 53.5351 2.50518 53.5118 2.54372C53.5059 2.55192 53.4989 2.55657 53.4943 2.56477C50.667 7.27336 42.1946 19.4944 36.9984 19.4944C31.8035 19.4944 23.331 7.27336 20.5049 2.56477C20.5014 2.56013 20.4967 2.55657 20.4933 2.55083C20.4373 2.46212 20.3732 2.37943 20.2939 2.3059C20.2904 2.30234 20.2857 2.30125 20.2811 2.29769C20.2659 2.28375 20.2484 2.27555 20.2321 2.2627C20.1634 2.20666 20.0886 2.15773 20.0093 2.12042C19.9779 2.10525 19.9452 2.09472 19.9126 2.08187C19.8438 2.05618 19.7738 2.03636 19.7003 2.02351C19.663 2.01654 19.6268 2.01189 19.5883 2.00957C19.5114 2.00369 19.4344 2.00724 19.3574 2.01777C19.3329 2.02009 19.3095 2.01545 19.2851 2.02009C19.2758 2.02132 19.2688 2.02706 19.2594 2.02939C19.2465 2.03171 19.2349 2.03062 19.222 2.03403L14.5568 3.20007C14.1124 3.31092 13.7754 3.67013 13.6925 4.11913C13.6517 4.34069 10.3625 22.0647 7.53649 33.2991L8.97111 39.0388C9.79804 42.0702 13.0848 44.8905 17.5462 46.3776C20.5309 47.3736 23.6322 48.5622 25.8506 51.1538C28.1379 53.8283 29.0301 57.5559 28.4224 61.2289C27.7238 61.7525 26.9516 62.1911 26.1084 62.5153C25.9649 62.569 25.8226 62.6191 25.6803 62.6692C26.6286 59.8268 26.7207 55.7609 24.0777 52.6701C22.2489 50.5321 19.4834 49.4823 16.8078 48.5901C11.6176 46.8604 7.74876 43.4266 6.71544 39.6289L6.28502 37.9097C6.04009 38.7307 5.80212 39.4727 5.57824 40.0907C4.12024 44.1147 3.83334 49.81 5.40205 54.9245C5.82194 57.2759 6.25345 59.6249 6.68619 61.9739L6.79239 62.5525C7.20531 64.8082 8.50229 67.0313 10.3475 68.6525C12.8365 70.8371 16.3963 72 20.1158 72C22.0439 72 24.0173 71.6874 25.9032 71.0424C27.5362 70.4849 29.0046 69.6813 30.4252 68.9056C31.2323 68.4636 32.0675 68.0075 32.9049 67.6145C33.1545 67.4979 33.403 67.3742 33.656 67.2507C34.8084 66.6839 35.8954 66.1485 36.9999 66.1485C38.1045 66.1485 39.1915 66.6839 40.3439 67.2507C40.5947 67.3744 40.8454 67.4979 41.095 67.6145C41.9324 68.0076 42.7675 68.4636 43.5747 68.9056C44.9953 69.6813 46.4637 70.4849 48.0967 71.0424C53.6217 72.9296 59.8723 71.9707 63.6524 68.6525C65.4964 67.0324 66.7923 64.8082 67.2086 62.5513L67.4069 61.4747C67.8058 59.2925 68.2071 57.1102 68.5978 54.9256C70.1666 49.8124 69.8797 44.1159 68.4228 40.0909ZM55.0622 13.7626C56.1854 20.4669 57.5302 28.2803 58.0305 30.2747C59.0558 34.3769 56.9877 37.8059 52.3422 39.8774C47.0025 37.3732 45.4245 35.8616 44.9673 35.1758C42.9507 32.1503 43.1699 25.9953 55.0622 13.7626ZM15.9705 30.2736C16.4697 28.2792 17.8157 20.468 18.9377 13.7639C30.8287 25.9967 31.0481 32.1503 29.0303 35.1759C28.5731 35.8618 26.9961 37.3744 21.6577 39.8775C17.012 37.8047 14.9452 34.3769 15.9705 30.2736ZM28.0446 42.4702C27.9211 42.4026 27.7974 42.3338 27.6714 42.2696C27.438 42.1507 27.2025 42.0375 26.9646 41.9279C26.8619 41.8813 26.7616 41.8299 26.6579 41.7844C26.3172 41.6339 25.9732 41.4893 25.6256 41.354C25.5883 41.3388 25.551 41.3259 25.5137 41.3108C25.2361 41.2035 24.9585 41.0985 24.6798 40.9982C28.0144 39.2941 30.0823 37.8035 30.9711 36.4704C34.6941 30.8882 30.8044 22.2922 19.4126 10.919C19.6984 9.19621 19.9549 7.63802 20.1613 6.38642C23.524 11.4951 31.0574 21.8266 36.9989 21.8266C42.9426 21.8266 50.4785 11.4928 53.8399 6.3841C53.9076 6.79579 53.9799 7.23782 54.0581 7.71142C54.1666 8.37502 54.2843 9.08891 54.4115 9.85051C54.4687 10.1992 54.527 10.5539 54.5877 10.9177C43.1933 22.2922 39.3047 30.8871 43.0266 36.4704C43.9153 37.8036 45.9845 39.2931 49.3203 40.9994C49.0882 41.0822 48.8572 41.1708 48.6263 41.2595C48.5388 41.2922 48.4514 41.3236 48.3639 41.3575C48.0233 41.4916 47.6851 41.6328 47.3492 41.782C47.2372 41.831 47.1276 41.8858 47.0167 41.9372C46.7857 42.0434 46.5572 42.153 46.3309 42.2684C46.2038 42.3337 46.079 42.4024 45.9529 42.4713C45.7453 42.5833 45.54 42.7011 45.337 42.8225C45.2099 42.8994 45.0839 42.9787 44.958 43.0604C44.7597 43.1888 44.5649 43.3229 44.3725 43.4628C44.2536 43.548 44.1357 43.6331 44.019 43.7229C43.816 43.8804 43.6202 44.0495 43.4265 44.221C43.3308 44.3062 43.2317 44.3854 43.1384 44.4742C42.8561 44.7412 42.5821 45.0212 42.3231 45.3245C41.9883 45.7163 41.6816 46.1269 41.4017 46.5504C41.2383 46.7964 41.103 47.0554 40.9584 47.3109C40.857 47.4917 40.7438 47.6677 40.6505 47.852C40.5 48.153 40.3775 48.4643 40.2516 48.7769C40.1898 48.9297 40.1199 49.0802 40.0638 49.2354C39.9542 49.5444 39.8678 49.8605 39.7827 50.1778C39.7361 50.3515 39.6836 50.5241 39.6438 50.7014C39.6228 50.7971 39.5878 50.8892 39.5692 50.986H34.4302C34.4115 50.8915 34.3777 50.8005 34.3566 50.7073C34.3158 50.523 34.261 50.3422 34.212 50.1603C34.1281 49.8512 34.0453 49.5433 33.938 49.2423C33.8785 49.0733 33.8016 48.9111 33.7339 48.7443C33.6138 48.4456 33.496 48.1471 33.3513 47.859C33.2499 47.6549 33.1262 47.4601 33.012 47.2606C32.8766 47.0238 32.7519 46.7823 32.6003 46.5538C32.3203 46.1292 32.0136 45.7176 31.6777 45.3255C31.4176 45.0222 31.1446 44.7423 30.8623 44.4752C30.7679 44.3854 30.6676 44.3049 30.5708 44.2187C30.3784 44.0484 30.1836 43.8804 29.9818 43.7242C29.8652 43.6331 29.7439 43.5469 29.625 43.4605C29.4337 43.3229 29.2401 43.1888 29.0441 43.0617C28.9169 42.9801 28.7898 42.8996 28.6615 42.8226C28.4586 42.7 28.2534 42.5833 28.0446 42.4702ZM64.9144 62.1303C64.5925 63.8798 63.5719 65.6188 62.1128 66.8995C58.9426 69.6849 53.6124 70.4616 48.8513 68.8346C47.4074 68.3411 46.0883 67.6215 44.6933 66.8588C43.8547 66.4004 42.988 65.9257 42.0865 65.5024C41.8508 65.3915 41.6118 65.2749 41.3727 65.1571C40.0955 64.5285 38.647 63.8158 37.0001 63.8158C35.352 63.8158 33.9034 64.5285 32.625 65.1571C32.387 65.2749 32.1491 65.3915 31.9136 65.5024C31.012 65.9258 30.1442 66.4005 29.3068 66.8588C27.9107 67.6216 26.5927 68.3413 25.1487 68.8346C20.39 70.4652 15.0585 69.6849 11.8872 66.8995C10.4281 65.6188 9.40754 63.8798 9.08674 62.1303L8.99107 61.609C9.0225 61.6452 9.05872 61.6766 9.09139 61.7116C9.15317 61.7816 9.22083 61.8423 9.28507 61.911C9.57661 62.2247 9.87636 62.528 10.1913 62.8092C10.3207 62.9247 10.4573 63.0296 10.5913 63.1393C10.8491 63.3528 11.1103 63.5627 11.3822 63.7552C11.5489 63.873 11.7205 63.979 11.8919 64.0888C12.1473 64.2509 12.4039 64.4084 12.6687 64.5519C12.8552 64.6522 13.0443 64.7456 13.2355 64.8377C13.5049 64.9671 13.7791 65.0873 14.059 65.1969C14.2502 65.2727 14.4427 65.3451 14.6387 65.4115C14.9373 65.5129 15.2417 65.6016 15.5496 65.6821C15.7375 65.731 15.9253 65.7812 16.1165 65.8221C16.4477 65.8944 16.7883 65.9481 17.13 65.9947C17.3131 66.0204 17.4927 66.0495 17.677 66.0682C18.0281 66.1032 18.3861 66.1172 18.7465 66.1266C18.897 66.1313 19.0416 66.1511 19.1932 66.1511C19.2969 66.1511 19.4008 66.1511 19.5046 66.1487C19.5139 66.1487 19.5349 66.1487 19.5676 66.1475C19.5815 66.1475 19.6038 66.1475 19.6224 66.1464C19.6468 66.1464 19.6667 66.1464 19.6982 66.1452C19.7286 66.144 19.767 66.1429 19.8044 66.1416C19.8348 66.1404 19.8616 66.1404 19.8966 66.1381C19.9374 66.1369 19.9828 66.1345 20.0296 66.1322C20.0715 66.1299 20.1101 66.1276 20.1567 66.1252C20.2104 66.1229 20.2698 66.1183 20.3293 66.1147C20.3759 66.1112 20.4214 66.1088 20.4728 66.1054C20.5369 66.1008 20.6058 66.0949 20.6758 66.0892C20.7306 66.0845 20.7843 66.0799 20.8415 66.0752C20.9184 66.0682 20.9989 66.06 21.0817 66.0518C21.1401 66.046 21.1972 66.0402 21.2579 66.0343C21.3442 66.0251 21.4317 66.0145 21.5227 66.004C21.5891 65.9958 21.6568 65.9877 21.7257 65.9783C21.819 65.9667 21.9135 65.9538 22.0115 65.9398C22.0827 65.9305 22.155 65.9199 22.2284 65.9083C22.331 65.8931 22.4348 65.8769 22.541 65.8605C22.6145 65.8476 22.6902 65.8348 22.7649 65.8219C22.8757 65.8033 22.9864 65.7834 23.1008 65.7625C23.179 65.7473 23.2583 65.7321 23.3376 65.7159C23.4554 65.6925 23.5732 65.6693 23.6944 65.6436C23.7737 65.6272 23.8542 65.6086 23.9347 65.5911C24.0584 65.5631 24.182 65.535 24.308 65.5048C24.3919 65.485 24.4783 65.4616 24.5635 65.4407C24.6906 65.4081 24.8177 65.3766 24.946 65.3416C25.0312 65.3183 25.1187 65.2927 25.2038 65.2681C25.3356 65.2308 25.4675 65.1935 25.6016 65.1526C25.6855 65.1269 25.7696 65.0989 25.8535 65.0721C26.2139 64.9566 26.5767 64.833 26.9441 64.6931C27.9716 64.2989 28.9128 63.767 29.7667 63.1348C29.8133 63.0998 29.8601 63.066 29.9067 63.0298C30.1854 62.8175 30.4549 62.5947 30.7125 62.3603C30.8957 62.1947 31.0671 62.0197 31.2397 61.8437C31.3342 61.7457 31.4309 61.6489 31.522 61.5475C32.1017 60.913 32.6079 60.2155 33.0382 59.4632C33.0441 59.4527 33.0498 59.4434 33.0557 59.4328C33.1992 59.1809 33.3356 58.9232 33.4616 58.6595C33.4804 58.6186 33.4979 58.5756 33.5165 58.5347C33.6961 58.1439 33.8571 57.7439 33.997 57.3287C34.0682 57.1211 34.1347 56.9124 34.1941 56.7001C34.2209 56.6045 34.2582 56.5147 34.2827 56.419C34.2979 56.3583 34.3025 56.2977 34.3177 56.2382C34.411 55.8474 34.488 55.4496 34.5428 55.0472C34.5557 54.9562 34.5639 54.8641 34.5731 54.772C34.6198 54.3765 34.6467 53.9765 34.6537 53.573C34.6549 53.5287 34.6583 53.4832 34.6583 53.4389C34.6583 53.398 34.6629 53.3584 34.6629 53.3188H39.3378C39.3378 53.3596 39.3424 53.4004 39.3424 53.4412C39.3424 53.4832 39.346 53.5251 39.346 53.5672C39.3529 53.9732 39.381 54.3756 39.4276 54.7744C39.4369 54.8655 39.4451 54.9563 39.4567 55.0474C39.5127 55.4498 39.5884 55.8475 39.6829 56.2383C39.6968 56.299 39.7027 56.3595 39.7167 56.4191C39.7423 56.5182 39.7808 56.6128 39.8088 56.7119C39.8636 56.9043 39.923 57.0945 39.9873 57.2834C40.2381 58.0369 40.5577 58.7518 40.9402 59.4248C40.9484 59.4387 40.9566 59.4516 40.9636 59.4656C41.3858 60.2017 41.8803 60.884 42.4437 61.508C42.5207 61.5919 42.5976 61.6747 42.6758 61.7575C42.824 61.9114 42.9697 62.0666 43.1261 62.2124C43.3885 62.4609 43.6638 62.6976 43.9484 62.9228C43.9728 62.9415 43.9996 62.9601 44.0242 62.9788C44.9304 63.6822 45.9451 64.2676 47.0556 64.6934C47.697 64.9383 48.3304 65.1413 48.9427 65.3103C48.9438 65.3116 48.9451 65.3116 48.9451 65.3116C49.1514 65.3687 49.3544 65.4212 49.5538 65.4713C49.5608 65.4726 49.569 65.4749 49.576 65.476C49.7697 65.5238 49.9597 65.5681 50.1464 65.609C50.1603 65.6125 50.1744 65.616 50.1872 65.6183C50.3692 65.6579 50.5453 65.6941 50.7203 65.7279C50.7389 65.7315 50.7576 65.7349 50.7763 65.7395C50.9431 65.771 51.1052 65.8002 51.2651 65.827C51.2896 65.8316 51.3153 65.8363 51.341 65.8409C51.4902 65.8654 51.6348 65.8888 51.7771 65.9097C51.8109 65.9143 51.8448 65.9202 51.8775 65.9249C52.0069 65.9436 52.1317 65.9598 52.2541 65.9761C52.2973 65.982 52.3416 65.9866 52.3848 65.9925C52.4898 66.0054 52.5924 66.017 52.6915 66.0287C52.7476 66.0346 52.8024 66.0404 52.8572 66.0462C52.9388 66.0544 53.017 66.0626 53.0928 66.0696C53.1582 66.0755 53.2199 66.0812 53.2806 66.086C53.3401 66.0907 53.3972 66.0953 53.4533 66.1C53.5291 66.1058 53.5991 66.1105 53.6679 66.1151C53.6982 66.1174 53.7285 66.1198 53.7566 66.121C53.8499 66.1269 53.9338 66.1315 54.0097 66.1349H54.0143C54.2768 66.1466 54.4401 66.1489 54.4716 66.1489H54.4739C54.5799 66.1501 54.6849 66.1512 54.7876 66.1512C54.9847 66.1512 55.1712 66.1278 55.3649 66.1198C55.6647 66.1092 55.9644 66.1 56.2549 66.0719C56.5126 66.0475 56.7634 66.0066 57.0154 65.9693C57.2883 65.9284 57.56 65.8865 57.8248 65.8316C58.0651 65.7804 58.2995 65.7185 58.5339 65.6555C58.8033 65.5842 59.0704 65.5073 59.3328 65.4187C59.5474 65.3464 59.7597 65.2671 59.9696 65.1831C60.2402 65.077 60.5061 64.9603 60.7662 64.8355C60.9574 64.7445 61.1475 64.65 61.3343 64.5497C61.6026 64.4039 61.8638 64.2453 62.1215 64.0809C62.2883 63.9736 62.4563 63.8697 62.6184 63.7543C62.8878 63.5642 63.1468 63.3566 63.4034 63.1443C63.541 63.0301 63.6821 62.9228 63.8174 62.8014C64.1089 62.5402 64.3877 62.2567 64.6618 61.9652C64.7469 61.8754 64.8367 61.7938 64.9196 61.7004C64.9487 61.6677 64.9814 61.6397 65.0106 61.6071L64.9144 62.1303Z" fill="url(#paint0_linear_17_12)"/>
<defs>
<linearGradient id="paint0_linear_17_12" x1="37" y1="2" x2="37" y2="72" gradientUnits="userSpaceOnUse">
<stop stop-color="#FB7389"/>
<stop offset="1" stop-color="#9F42FF"/>
</linearGradient>
</defs>
</svg>
